<svg xmlns="http://www.w3.org/2000/svg" viewBox="0 0 48 48"><defs><style>.cls-1{fill:#42a5f5;}.cls-2{fill:#424242;}</style></defs><title>Review</title><g id="Review"><path class="cls-1" d="M32,4V3a3,3,0,0,0-3-3H7A3,3,0,0,0,4,3V45a3,3,0,0,0,3,3H29a3,3,0,0,0,3-3V26l-2,1.6V42H6V3A1,1,0,0,1,7,2h5a2,2,0,0,0,2,2h8a2,2,0,0,0,2-2h5a1,1,0,0,1,1,1V4ZM16,44h4a1,1,0,0,1,0,2H16A1,1,0,0,1,16,44Z"/><polygon class="cls-1" points="32 9.96 32.71 11.08 34 11.41 33.15 12.43 33.24 13.76 32 13.27 30.76 13.76 30.85 12.43 30 11.41 31.29 11.08 32 9.96"/><polygon class="cls-1" points="29 15.96 29.71 17.08 31 17.41 30.15 18.43 30.24 19.76 29 19.27 27.76 19.76 27.85 18.43 27 17.41 28.29 17.08 29 15.96"/><polygon class="cls-1" points="26 11.96 26.71 13.08 28 13.41 27.15 14.43 27.24 15.76 26 15.27 24.76 15.76 24.85 14.43 24 13.41 25.29 13.08 26 11.96"/><polygon class="cls-1" points="35 15.96 34.29 17.08 33 17.41 33.85 18.43 33.76 19.76 35 19.27 36.24 19.76 36.15 18.43 37 17.41 35.71 17.08 35 15.96"/><polygon class="cls-1" points="38 11.96 37.29 13.08 36 13.41 36.85 14.43 36.76 15.76 38 15.27 39.24 15.76 39.15 14.43 40 13.41 38.71 13.08 38 11.96"/><path class="cls-2" d="M26,28a1,1,0,0,1-1-1V24H23a3,3,0,0,1-3-3V9a3,3,0,0,1,3-3H41a3,3,0,0,1,3,3V21a3,3,0,0,1-3,3H31.35C26.39,28,26.51,28,26,28ZM23,8a1,1,0,0,0-1,1V21a1,1,0,0,0,1,1h3a1,1,0,0,1,1,1v1.92C30.4,22.2,30.49,22,31,22H41a1,1,0,0,0,1-1V9a1,1,0,0,0-1-1Z"/><path class="cls-2" d="M18,26a7,7,0,1,0,4.41,12.43A7,7,0,0,0,18,26Zm0,2a5,5,0,0,1,4,8,5,5,0,0,0-1.51-1.31,3,3,0,1,0-5,0A5,5,0,0,0,14,36,5,5,0,0,1,18,28Zm-1,5a1,1,0,0,1,2,0A1,1,0,0,1,17,33Zm-1.47,4.32a3,3,0,0,1,4.94,0A4.81,4.81,0,0,1,15.53,37.32Z"/></g></svg>