<?xml version="1.0" encoding="utf-8"?>
<!-- Generator: Adobe Illustrator 24.3.0, SVG Export Plug-In . SVG Version: 6.00 Build 0)  -->
<svg version="1.1" id="Layer_1" xmlns="http://www.w3.org/2000/svg" xmlns:xlink="http://www.w3.org/1999/xlink" x="0px" y="0px"
	 viewBox="0 0 756.7 706.5" style="enable-background:new 0 0 756.7 706.5;" xml:space="preserve">
<style type="text/css">
	.st0{fill:#F0F0F0;}
	.st1{fill:#E0E0E0;}
	.st2{fill:#FF725E;}
	.st3{opacity:0.15;enable-background:new    ;}
	.st4{fill:#FFFFFF;}
	.st5{opacity:0.15;}
	.st6{fill:#455A64;}
	.st7{fill:#263238;}
	.st8{fill:#37474F;}
	.st9{fill:#FAFAFA;}
	.st10{opacity:0.2;}
	.st11{opacity:0.6;}
	.st12{fill:#FFA8A7;}
	.st13{opacity:0.6;fill:#FFFFFF;enable-background:new    ;}
	.st14{opacity:0.1;enable-background:new    ;}
	.st15{fill:#B16668;}
	.st16{fill:#F28F8F;}
	.st17{fill:none;}
	.st18{font-family:'MyriadPro-Regular';}
	.st19{font-size:21px;}
</style>
<g id="Forgot_password-amico" transform="translate(-14.41 -38.007)">
	<g id="freepik--Floor--inject-5" transform="translate(14.41 307.636)">
		<ellipse id="freepik--floor--inject-5-2" class="st0" cx="378.4" cy="218.5" rx="378.4" ry="218.5"/>
	</g>
	<g id="freepik--Shadow--inject-5" transform="translate(184.009 540.979)">
		<ellipse id="freepik--shadow--inject-5-2" class="st1" cx="130.5" cy="75.3" rx="130.5" ry="75.3"/>
	</g>
	<g id="freepik--Plants--inject-5" transform="translate(49.968 366.384)">
		<g id="freepik--plants--inject-5-2" transform="translate(618.15 18.725)">
			<path id="Path_387" class="st2" d="M17.4,137l-15.3-8.8c0,0-3.7-32.8-1.3-58.1c3.5-35.7,26.5-78.6,54-68.5S42.3,47.9,33.3,78.1
				S17.4,137,17.4,137z"/>
			<path id="Path_388" class="st3" d="M17.4,137l-15.3-8.8c0,0-3.7-32.8-1.3-58.1c3.5-35.7,26.5-78.6,54-68.5S42.3,47.9,33.3,78.1
				S17.4,137,17.4,137z"/>
			<path id="Path_389" class="st4" d="M9.4,133.2L9.4,133.2c0.5,0,0.9-0.5,0.9-1C7.6,53,47,13.2,47.4,12.8c0.4-0.4,0.4-1,0-1.3
				c-0.4-0.4-0.9-0.4-1.3,0c0,0,0,0,0,0C45.7,11.9,5.7,52.3,8.4,132.3C8.4,132.9,8.8,133.3,9.4,133.2C9.4,133.2,9.4,133.2,9.4,133.2
				L9.4,133.2z"/>
			<path id="Path_390" class="st2" d="M27,142.5l-10.9-6.3c0,0-1.9-22.5,9.2-49.8C35,62.6,58.7,42.9,70.7,47s11.7,12.6,5.8,21.6
				S35.2,98.7,27,142.5z"/>
			<path id="Path_391" class="st4" d="M21.3,140.1L21.3,140.1c0.5,0,0.9-0.4,0.9-0.9C22,89,69,55.2,69.5,54.9
				c0.4-0.3,0.5-0.8,0.2-1.3c0,0,0,0,0,0c-0.3-0.4-0.9-0.5-1.3-0.2c-0.5,0.3-48.3,34.8-48.1,85.8C20.4,139.7,20.8,140.1,21.3,140.1z
				"/>
		</g>
		<g id="freepik--plants--inject-5-3" transform="translate(0)">
			<path id="Path_392" class="st2" d="M69.2,136l14.1-9.5c0,0,6.2-36.9,0.4-69.5C75.7,11.2,44.1-4,32.8,0.9s-13.7,18.4,7.3,44.5
				C52.6,60.7,68.8,93.4,69.2,136z"/>
			<g id="Group_131" transform="translate(24.354)" class="st5">
				<path id="Path_393" d="M44.9,136l14.1-9.5c0,0,6.2-36.9,0.4-69.5C51.3,11.2,19.7-4,8.5,0.9s-13.7,18.4,7.3,44.5
					C28.3,60.7,44.4,93.4,44.9,136z"/>
			</g>
			<path id="Path_394" class="st4" d="M74.1,117.7h-0.1c-0.6,0-1-0.5-1-1.1c0,0,0-0.1,0-0.1c5.1-43-13.1-89.7-32.8-108.3
				c-0.4-0.4-0.4-1,0-1.4c0.4-0.4,1-0.4,1.4,0c0,0,0,0,0,0c20.1,18.9,38.6,66.4,33.5,110C75,117.3,74.6,117.7,74.1,117.7L74.1,117.7
				z"/>
			<path id="Path_395" class="st2" d="M32.2,161c-2.2,1.3-8.8-3.5-10.6-4.7c-3.1-2-5.6-4.8-7.4-8.1c-1.9-3.7-2.6-8-2-12.1
				c0.3-2.2,0.8-4.3,1.4-6.4c0.6-2.1,1.1-4.2,1.6-6.3c0.7-2.1,1-4.3,0.8-6.4c-0.6-4.3-4.5-7.2-8-9.7c-3.9-2.8-8-6.5-8-11.7
				c0.2-4.1,1.8-7.9,4.4-11c2.4-3.2,5.3-6,7.5-9.4c1.7-2.3,2.6-5.2,2.5-8c-0.3-1.8-0.9-3.5-1.9-5c-1.9-3.3-4.4-6.4-5.7-10
				s-1.2-8.1,1.6-10.8c2.3-2.2,5.7-2.5,8.8-2.4c3,0.3,5.8,1.2,8.4,2.7c8.3,4.4,13.2,14.1,22,17.4c3.4,1.3,7.1,1.5,10.6,2.4
				s7.1,2.6,8.8,5.8c3.3,6.3-2.5,14.3-0.1,21.1c2.1,6,8,8.2,11.4,13.5c1.4,2.4,1.9,5.1,1.6,7.8c-0.2,4.6-1.2,9.1-3,13.3
				c-2.1,4.4-4.5,8.6-7.1,12.7C69.8,135.6,32.6,160.8,32.2,161z"/>
			<path id="Path_396" class="st4" d="M53.9,147.6L53.9,147.6c-0.6,0-1-0.5-1-1c0,0,0,0,0,0c0.9-40.7-19.1-85.1-33.3-98
				c-0.4-0.4-0.5-1-0.1-1.4c0.4-0.4,1-0.4,1.4,0c0,0,0,0,0,0c14.5,13,34.9,58.2,34,99.5C55,147.2,54.5,147.7,53.9,147.6
				C53.9,147.7,53.9,147.7,53.9,147.6L53.9,147.6z"/>
			<path id="Path_397" class="st4" d="M46.4,98.1c-0.1,0-0.2,0-0.3,0c-13.1-3.8-29.4-4.2-29.6-4.2c-0.6,0-1-0.5-1-1c0,0,0,0,0,0
				c0-0.5,0.4-1,1-1c0,0,0.1,0,0.1,0c0.2,0,16.7,0.4,30.1,4.3c0.5,0.2,0.8,0.7,0.7,1.3C47.3,97.8,46.9,98.1,46.4,98.1z"/>
		</g>
	</g>
	<g id="freepik--speech-bubble--inject-5" transform="translate(424.491 107.366)">
		<g id="freepik--speach-bubble--inject-5" transform="translate(0 0)">
			<path id="Path_398" class="st6" d="M50.5,367.1l-6.1-3.5c-2.1-1.3-3.4-3.6-3.5-6v-253c0.1-2.4,1.4-4.7,3.5-6L213.6,0.8
				c2.2-1.1,4.8-1.1,7,0l6.1,3.5c2.1,1.3,3.4,3.6,3.5,6v253c-0.1,2.4-1.4,4.7-3.5,6L57.4,367.1C55.2,368.2,52.6,368.2,50.5,367.1
				L50.5,367.1z"/>
			<path id="Path_399" class="st6" d="M230.1,9.8c-0.2-1.8-1.7-2.5-3.5-1.4L57.4,106.1c-1,0.6-1.9,1.5-2.5,2.6l-13.1-7.5
				c0.6-1.1,1.4-2,2.5-2.6L213.6,0.8c2.2-1.1,4.8-1.1,7,0l6.1,3.5C228.5,5.6,229.8,7.6,230.1,9.8z"/>
			<path id="Path_400" class="st7" d="M56.8,367.3c-2.1,0.8-4.4,0.7-6.4-0.3l-6.1-3.5c-2-1.3-3.3-3.6-3.5-6v-253
				c0-1.2,0.4-2.4,1-3.4l13.1,7.5c-0.6,1-1,2.2-1,3.4v253C53.9,367.1,55.2,368,56.8,367.3z"/>
			<path id="Path_401" class="st8" d="M53.9,112.1v253c0,2.2,1.6,3.1,3.5,2l169.2-97.7c2-1.3,3.3-3.6,3.5-6v-253
				c0-2.2-1.6-3.1-3.5-2L57.4,106.1C55.3,107.4,54,109.7,53.9,112.1z"/>
			<path id="Path_402" class="st6" d="M14.4,208.5c-2.2-1.3-12.3-7.1-12.8-7.4c-1.5-0.9-2-2.9-1.1-4.4c0.1-0.2,0.3-0.4,0.4-0.6
				l40-42.9l13,7.5l-40,42.9c-1.2,1.3-1.2,3.3,0.1,4.5C14.2,208.3,14.3,208.4,14.4,208.5L14.4,208.5z"/>
			<path id="Path_403" class="st8" d="M53.9,160.8l-40,42.9c-1.2,1.3-1.2,3.3,0.1,4.5c0.7,0.6,1.6,0.9,2.5,0.9l37.4-3.1L53.9,160.8z
				"/>
			<path id="Path_404" class="st2" d="M142,83.5c19.7-11.4,35.7-2.2,35.7,20.6s-16,50.4-35.7,61.8s-35.7,2.2-35.7-20.6
				S122.3,94.9,142,83.5z"/>
			<path id="Path_405" class="st4" d="M141.7,101.4c6.4-3.7,11.6-0.7,11.6,6.7c-0.4,8.1-4.7,15.6-11.6,20
				c-6.4,3.7-11.6,0.7-11.6-6.7C130.6,113.3,134.9,105.9,141.7,101.4z"/>
			<path id="Path_406" class="st4" d="M164.6,140.8c0-12.1-8.5-17.1-19-11l-6.6,3.8c-10.5,6.1-19,20.9-19,33v3.3
				c2,0.6,4.1,1,6.1,0.9c5.6-0.2,11.1-1.9,15.9-4.8c9.1-5.6,16.9-13.3,22.6-22.3L164.6,140.8z"/>
			<path id="Path_407" class="st2" d="M119.4,278.7l45.2-26.1c1.9-1.1,3.5-0.2,3.5,2v14.6c-0.1,2.4-1.4,4.7-3.5,6l-45.2,26.1
				c-1.9,1.1-3.5,0.2-3.5-2v-14.6C116,282.3,117.3,280,119.4,278.7z"/>
			<path id="Path_408" class="st9" d="M97.2,246.2l89.5-51.7c2.3-1.3,4.2-0.3,4.2,2.4v5.4c-0.2,2.9-1.7,5.6-4.2,7.2l-89.5,51.7
				c-2.3,1.3-4.2,0.3-4.2-2.4v-5.4C93.2,250.5,94.7,247.8,97.2,246.2z"/>
		</g>
	</g>
	<g id="freepik--question-marks--inject-5" transform="translate(361.476 38.007)">
		<g id="freepik--question-marks--inject-5-2">
			<path id="Path_417" class="st2" d="M27.1,0.6c2.8,0.6,5.4,1.6,7.9,3c2.4,1.3,4.5,3,6.3,5c1.7,2,3,4.3,3.7,6.7
				c0.8,2.7,0.8,5.5,0.2,8.2c-0.4,2.1-1.3,4.2-2.5,6c-1.1,1.5-2.4,2.9-3.9,4.1c-1.5,1.1-3,2.1-4.7,3l-4.6,2.5
				c-1.4,0.7-2.7,1.6-4,2.6c-1.1,0.9-2,2-2.5,3.3c-0.2,0.6-0.7,1.1-1.2,1.5c-0.5,0.4-1.2,0.5-1.8,0.4l-6.8-1.5
				c-0.7-0.1-1.2-0.5-1.6-1.1c-0.4-0.5-0.5-1.2-0.3-1.8c0.5-2.1,1.5-4.1,2.8-5.8c1.2-1.5,2.6-2.9,4.2-4.1c1.5-1.1,3.1-2.1,4.8-2.9
				c1.6-0.8,3.2-1.6,4.6-2.4c1.3-0.7,2.5-1.5,3.6-2.5c1-0.8,1.7-2,1.9-3.2c0.5-2.2-0.1-4.5-1.6-6.2c-1.9-2.1-4.4-3.4-7.1-3.9
				c-5.1-1.1-9.4,0.6-12.8,5.1c-0.3,0.5-0.8,0.9-1.3,1.3c-0.6,0.3-1.2,0.3-1.8,0.1l-7.2-1.6c-0.5-0.1-1-0.4-1.3-0.8
				C0,15-0.1,14.4,0.1,13.8c0.6-2.2,1.8-4.3,3.3-6c1.8-2,3.9-3.6,6.2-4.8c2.6-1.3,5.3-2.3,8.2-2.7C20.9-0.2,24.1-0.1,27.1,0.6
				L27.1,0.6z M19.4,52.3c1.3,0.3,2.2,1.6,1.9,3l-1.7,7.9c-0.1,0.7-0.5,1.3-1.1,1.6c-0.5,0.4-1.2,0.5-1.9,0.4l-7.8-1.8
				c-0.7-0.1-1.3-0.5-1.6-1.1c-0.4-0.5-0.5-1.2-0.3-1.9l1.8-7.9c0.3-1.3,1.6-2.2,3-1.9L19.4,52.3z"/>
			<path id="Path_418" class="st2" d="M35.7,76c1.9-0.3,3.9-0.3,5.8-0.1c1.9,0.2,3.7,0.8,5.3,1.6c1.6,0.8,3,2,4.1,3.4
				c2,2.8,2.8,6.3,2.1,9.6c-0.3,1.3-0.8,2.5-1.5,3.6c-0.6,1.1-1.4,2.1-2.2,3.1c-0.8,1-1.6,1.9-2.3,2.8c-0.7,0.8-1.3,1.7-1.9,2.7
				c-0.5,0.8-0.8,1.8-0.7,2.7c0,0.5-0.1,0.9-0.4,1.3c-0.2,0.4-0.6,0.6-1,0.7l-4.8,0.8c-0.5,0.1-0.9,0-1.3-0.3
				c-0.4-0.2-0.6-0.7-0.7-1.1c-0.2-1.5-0.1-3,0.3-4.5c0.4-1.3,0.9-2.5,1.6-3.7c0.7-1.1,1.4-2.1,2.3-3.1c0.9-1,1.6-1.9,2.3-2.7
				c0.7-0.8,1.2-1.6,1.7-2.5c0.4-0.8,0.6-1.7,0.4-2.5c-0.2-1.6-1.2-2.9-2.6-3.6c-1.7-0.8-3.7-1.1-5.6-0.7c-3.5,0.5-6.3,3.2-7,6.6
				c-0.1,0.4-0.3,0.8-0.5,1.1c-0.3,0.3-0.7,0.5-1.1,0.5l-5.1,0.8c-0.4,0.1-0.7,0-1-0.2c-0.3-0.2-0.5-0.6-0.6-0.9
				c-0.2-1.6,0.1-3.2,0.7-4.7c0.6-1.7,1.6-3.3,2.8-4.7c1.3-1.5,2.8-2.8,4.6-3.9C31.5,77,33.5,76.3,35.7,76L35.7,76z M44,111
				c0.4-0.1,0.9,0,1.3,0.3c0.4,0.3,0.6,0.7,0.7,1.1l0.9,5.5c0.1,0.9-0.5,1.8-1.4,2l-5.4,0.9c-0.4,0.1-0.9,0-1.3-0.3
				c-0.4-0.3-0.6-0.7-0.7-1.1l-0.9-5.5c-0.1-0.9,0.5-1.8,1.4-2L44,111z"/>
			<g id="Group_132" transform="translate(21.544 75.691)" class="st10">
				<path id="Path_419" d="M14.1,0.3C16.1,0,18-0.1,20,0.2c1.9,0.2,3.7,0.8,5.3,1.6c1.6,0.8,3,2,4.1,3.4c2,2.8,2.8,6.3,2.1,9.6
					c-0.3,1.3-0.8,2.5-1.5,3.6c-0.6,1.1-1.4,2.1-2.2,3.1c-0.8,1-1.6,1.9-2.3,2.8c-0.7,0.8-1.3,1.7-1.9,2.7c-0.5,0.8-0.8,1.8-0.7,2.7
					c0,0.5-0.1,0.9-0.4,1.3c-0.2,0.4-0.6,0.6-1,0.7l-4.8,0.8c-0.5,0.1-0.9,0-1.3-0.3c-0.4-0.2-0.6-0.7-0.7-1.1
					c-0.2-1.5-0.1-3,0.3-4.5c0.4-1.3,0.9-2.5,1.6-3.7c0.7-1.1,1.4-2.1,2.3-3.1c0.9-1,1.6-1.9,2.3-2.7c0.7-0.8,1.2-1.6,1.7-2.5
					c0.4-0.8,0.6-1.7,0.4-2.5c-0.2-1.6-1.2-2.9-2.6-3.6c-1.7-0.8-3.7-1.1-5.6-0.7c-3.5,0.5-6.3,3.2-7,6.6c-0.1,0.4-0.3,0.8-0.5,1.1
					C7.5,15.8,7.1,16,6.7,16l-5.1,0.8c-0.4,0.1-0.7,0-1-0.2c-0.3-0.2-0.5-0.6-0.6-0.9c-0.2-1.6,0.1-3.2,0.7-4.7
					c0.6-1.7,1.6-3.3,2.8-4.7c1.3-1.5,2.8-2.8,4.6-3.9C9.9,1.4,12,0.6,14.1,0.3L14.1,0.3z M22.4,35.4c0.4-0.1,0.9,0,1.3,0.3
					c0.4,0.3,0.6,0.7,0.7,1.1l0.9,5.5c0.1,0.9-0.5,1.8-1.4,2l-5.4,0.9c-0.4,0.1-0.9,0-1.3-0.3c-0.4-0.3-0.6-0.7-0.7-1.1l-0.9-5.5
					c-0.1-0.9,0.5-1.8,1.4-2L22.4,35.4z"/>
			</g>
			<path id="Path_420" class="st2" d="M81.1,84.6c0.4,0.3,0.7,0.8,0.8,1.3c0.1,0.5,0,1.1-0.3,1.5l-3.8,5.4c-0.3,0.4-0.8,0.7-1.3,0.8
				c-0.5,0.1-1.1,0-1.5-0.3l-5.3-3.7c-0.4-0.3-0.7-0.8-0.8-1.3c-0.1-0.5,0-1.1,0.3-1.5l3.9-5.4c0.7-0.9,1.9-1.1,2.8-0.5L81.1,84.6z
				 M103.3,48.2c1.9,1.3,3.6,3,5.1,4.8c1.4,1.7,2.5,3.7,3.2,5.8c0.7,2,0.9,4.2,0.7,6.3c-0.3,2.3-1.1,4.4-2.5,6.2
				c-1,1.5-2.3,2.7-3.8,3.7c-1.3,0.8-2.8,1.5-4.3,1.9c-1.5,0.4-3,0.6-4.5,0.8L93,78c-1.3,0.1-2.5,0.3-3.8,0.7
				c-1.1,0.3-2.2,0.8-3,1.7c-0.4,0.4-0.8,0.6-1.4,0.8c-0.5,0.1-1,0-1.4-0.3l-4.7-3.3c-0.4-0.3-0.7-0.8-0.9-1.3
				c-0.1-0.5,0-1.1,0.4-1.5c1.1-1.4,2.4-2.6,4-3.5c1.4-0.8,2.9-1.3,4.4-1.7c1.5-0.4,3-0.6,4.5-0.7c1.5-0.1,2.9-0.2,4.2-0.3
				c1.2-0.1,2.4-0.3,3.5-0.7c1-0.3,1.9-1,2.5-1.9c1.1-1.5,1.4-3.5,0.8-5.2c-0.8-2.1-2.2-4-4.1-5.2c-3.5-2.5-7.3-2.6-11.4-0.2
				c-0.4,0.3-0.9,0.4-1.3,0.5c-0.5,0-1-0.1-1.4-0.5l-4.9-3.5c-0.7-0.5-0.9-1.5-0.5-2.2c0,0,0-0.1,0.1-0.1c1.2-1.5,2.7-2.7,4.4-3.5
				c2-0.9,4.1-1.4,6.2-1.6c2.4-0.2,4.8,0,7.1,0.6C98.9,45.6,101.3,46.7,103.3,48.2L103.3,48.2z"/>
			<g id="Group_133" transform="translate(68.817 44.321)" class="st11">
				<path id="Path_421" class="st4" d="M12.3,40.3c0.4,0.3,0.7,0.8,0.8,1.3c0.1,0.5,0,1.1-0.3,1.5l-3.8,5.4
					c-0.3,0.4-0.8,0.7-1.3,0.8c-0.5,0.1-1.1,0-1.5-0.3l-5.3-3.7c-0.4-0.3-0.7-0.8-0.8-1.3c-0.1-0.5,0-1.1,0.3-1.5L4.2,37
					c0.7-0.9,1.9-1.1,2.8-0.5L12.3,40.3z M34.5,3.8c1.9,1.3,3.6,3,5.1,4.8c1.4,1.7,2.5,3.7,3.2,5.8c0.7,2,0.9,4.2,0.7,6.3
					c-0.3,2.3-1.1,4.4-2.5,6.2c-1,1.5-2.3,2.7-3.8,3.7c-1.3,0.8-2.8,1.5-4.3,1.9c-1.5,0.4-3,0.6-4.5,0.8l-4.3,0.4
					c-1.3,0.1-2.5,0.3-3.8,0.7c-1.1,0.3-2.2,0.8-3,1.7c-0.4,0.4-0.8,0.6-1.4,0.8c-0.5,0.1-1,0-1.4-0.3l-4.7-3.3
					c-0.4-0.3-0.7-0.8-0.9-1.3c-0.1-0.5,0-1.1,0.4-1.5c1.1-1.4,2.4-2.6,4-3.5c1.4-0.8,2.9-1.3,4.4-1.7c1.5-0.4,3-0.6,4.5-0.7
					c1.5-0.1,2.9-0.2,4.2-0.3c1.2-0.1,2.4-0.3,3.5-0.7c1-0.3,1.9-1,2.5-1.9c1.1-1.5,1.4-3.5,0.8-5.2c-0.8-2.1-2.2-4-4.1-5.2
					c-3.5-2.5-7.3-2.6-11.4-0.2c-0.4,0.3-0.9,0.4-1.3,0.5c-0.5,0-1-0.1-1.4-0.5l-4.9-3.5C9.5,7,9.3,6,9.8,5.2c0,0,0-0.1,0.1-0.1
					c1.2-1.5,2.7-2.7,4.4-3.5c2-0.9,4.1-1.4,6.2-1.6c2.4-0.2,4.8,0,7.1,0.6C30.1,1.2,32.4,2.3,34.5,3.8L34.5,3.8z"/>
			</g>
		</g>
	</g>
	<g id="freepik--Character--inject-5" transform="translate(196.475 77.515)">
		<g id="freepik--character--inject-5-2">
			<path id="Path_422" class="st7" d="M126.5,187.3H69.4V49c0-25,20.3-45.3,45.3-45.3h5.3c25,0,45.3,20.3,45.3,45.3v99.6
				C165.2,170,147.9,187.3,126.5,187.3z"/>
			<path id="Path_423" class="st7" d="M63.9,520.1c-1,5.7-1.5,11.5-1.6,17.3c-0.2,10.5-2.1,14.3-2.4,22.9
				c-0.3,9.9,1.4,13.6,5.4,19.1c4,5.6,14.5,10.6,19,1.2s3.9-15.5,2.4-25.2c-1.5-10-1.6-15.6-2.5-23.2c-0.7-6.7-1.6-11.9-1.6-11.9
				L63.9,520.1z"/>
			<path id="Path_424" class="st12" d="M93.8,450.1l-34.7-0.6c0.5,23.2,4.2,48.9,4.8,70.7c0.1,4.1-0.1,31.8,1.4,40.2
				c2.3,12.7,17.3,10.9,18.1,3.4s-1-39.9-0.9-43.2C82.4,506.5,89,483,92.4,458C92.5,456.8,93.6,451.3,93.8,450.1z"/>
			<path id="Path_425" class="st7" d="M138.3,502.1c0,0-1.4-0.7-1.6,0.7c-0.3,1.7-0.9,5.3-1.6,8.2c-1,4-1.8,10.5-1.2,13.7
				s8.1,7.4,13,8.9c6,1.9,11.5,5.1,16.1,9.6c4.8,4.6,15.3,8.9,22.5,8.8c8.4,0,14.3-2.8,17.1-7.3s-2.5-5.1-12.2-11.2l-7.5-4.8
				c-15.3-10-20.9-15.3-25.2-25.3L138.3,502.1z"/>
			<path id="Path_426" class="st12" d="M157.9,495.9c-0.3-7.2,4.7-68,4.7-68l-32.9,15c7.1,42.1,8.6,52.1,8.7,58.9l0,0
				c-0.1,0.6-0.2,1.2-0.2,1.8c0,8.2,9.3,12.6,16.5,18.1c6.1,4.8,12.6,9,19.5,12.7c5.2,2.6,15.9,2.9,17.2-0.5
				c-8.8-6.7-21.5-16.7-28.5-24.4C159.4,505.9,158.1,503.1,157.9,495.9z"/>
			<path id="Path_427" class="st6" d="M73.3,224.1c-12.7,27.8-12.7,49.3-10.6,84.7c1.9,32.5,5,61.2,5,61.2c-0.5,5.8-8.5,17-9.5,42.5
				c-1,23.8,1.6,54.1,1.6,54.1s18,10,31.3-0.1c0,0,12.8-61.3,16.6-91.2c3.2-26,9-59.3,9-59.3l12.2,59.1c-2.6,8.4-4.5,17-5.7,25.7
				c-1.7,17.6,8.1,52,8.1,52s18.6,5.5,30-4.5c0,0,4.2-56,5.8-77.2c2.1-28.3-2.3-105-5.8-145.5L73.3,224.1z"/>
			<path id="Path_428" class="st7" d="M116.7,316.1l5-44.6c0,0,22.4-3,32.5-12.5c-5.9,9.2-15.5,15.3-26.4,16.7l-7.2,41.5l8.2,58.1
				L116.7,316.1z"/>
			<path id="Path_429" class="st12" d="M207.4,213.2c0.9-8.1,1.3-16.3,1.2-24.5c-0.5-7.1-1.8-8.2-11.6-20.7
				c-13.3-16.9-24.7-32.1-36.8-47.2c-8.6-10.8-17.7-12.4-26.5-12c-6.2,0.3,5.9,30,11.9,47.6l34.6,37.2c1.1,1.5,1.6,3.3,1.4,5.1
				l-2.1,31.7l10.4,13.9C189.9,244.2,205.6,230.7,207.4,213.2z"/>
			<path id="Path_430" class="st2" d="M100.4,109.7L100.4,109.7c-6.7,0.5-18.9,1.6-18.9,1.6c-7,3.9-8.8,7.1-10.1,16.5
				c-0.6,4,2.7,14.6,5.5,29.6l5.3,27.9l-0.6,13.8c-2.7,8.4-8.9,18.9-14.4,34.4c26.8,15,49.3,15.5,69.7,12.8
				c15.5-2,23.8-5.8,26.5-9.5c-0.6-15.3-1.6-24.7-1.9-40.7c-0.1-6.7,0.3-13.5,0.6-21.2c10.4-8.6,10.6-22.8,4.8-32.1
				c-13.2-21.4-26.1-34.9-34.6-34.2L100.4,109.7z"/>
			<path id="Path_431" class="st13" d="M100.4,109.7L100.4,109.7c-6.7,0.5-18.9,1.6-18.9,1.6c-7,3.9-8.8,7.1-10.1,16.5
				c-0.6,4,2.7,14.6,5.5,29.6l5.3,27.9l-0.6,13.8c-2.7,8.4-8.9,18.9-14.4,34.4c26.8,15,49.3,15.5,69.7,12.8
				c15.5-2,23.8-5.8,26.5-9.5c-0.6-15.3-1.6-24.7-1.9-40.7c-0.1-6.7,0.3-13.5,0.6-21.2c10.4-8.6,10.6-22.8,4.8-32.1
				c-13.2-21.4-26.1-34.9-34.6-34.2L100.4,109.7z"/>
			<path id="Path_432" class="st14" d="M141.3,175.2c0,0-12.2,9.5-26.2,4.5c-8-2.5-14.1-9-16.1-17.2c0,0-1.5,16,16.1,21.4
				C132.2,189.3,141.3,175.2,141.3,175.2z"/>
			<path id="Path_433" class="st12" d="M157.9,65.9c-0.5,23.2-8,28.9-11.8,30.5S135,97,128,95.8v14c0,0,8.2,8.5,7.5,14.9
				c-0.6,6.4-12.8,7.1-22,0.9c-5-3.5-9.6-7.6-13.5-12.2c-0.8-0.9-1.2-2-1.2-3.2V77.4c0,0-3.9,4.1-10.7-0.6
				c-5.9-3.8-7.6-11.6-3.8-17.4c0.2-0.3,0.4-0.6,0.6-0.9c3-3.5,10.6-3.8,14.2,1.6c2.1,4,2.3,8,4.6,6.4c6.1-4.4,2.8-14.5,10.2-19.3
				l0,0c2.4-1.3,4.9-2.3,7.5-3.2c13.2-4.5,24.6-8.4,27.3-17.4C153.9,29.6,158.5,38.5,157.9,65.9z"/>
			<circle id="Ellipse_13" class="st15" cx="132" cy="83.5" r="3.1"/>
			<path id="Path_434" class="st7" d="M129.9,62.3c0,1.8-1.4,3.2-3.2,3.2c-1.8,0-3.2-1.4-3.2-3.2c0-1.8,1.4-3.2,3.2-3.2
				c0.8,0,1.6,0.3,2.2,0.9C129.6,60.6,129.9,61.5,129.9,62.3z"/>
			<path id="Path_435" class="st7" d="M154.3,62.7c0.1,1.6-1.1,3.1-2.7,3.2c0,0,0,0,0,0c-1.5,0.1-2.9-1-3.1-2.5c0-0.1,0-0.2,0-0.4
				c-0.2-1.6,1-3,2.6-3.2s3,1,3.2,2.6C154.3,62.5,154.3,62.6,154.3,62.7L154.3,62.7z"/>
			<path id="Path_436" class="st6" d="M125.8,70.6c-5.8,0-10.4-4.7-10.5-10.4c0-7.1,7.3-7.1,10.5-7.1s10.4,0,10.4,7.1
				C136.2,65.9,131.6,70.6,125.8,70.6L125.8,70.6z M125.8,54.7c-6.4,0-8.8,1.6-8.8,5.5c0,4.9,4,8.8,8.8,8.8c4.9,0,8.8-4,8.8-8.8
				C134.6,56.2,132.1,54.7,125.8,54.7L125.8,54.7z"/>
			<path id="Path_437" class="st6" d="M152.3,70.6c-5.8,0-10.4-4.7-10.5-10.4c0-7.1,7.3-7.1,10.5-7.1s10.4,0,10.4,7.1
				C162.8,65.9,158.1,70.6,152.3,70.6z M152.3,54.7c-6.3,0-8.8,1.6-8.8,5.5c0,4.9,4,8.8,8.8,8.8c4.9,0,8.8-4,8.8-8.8
				C161.1,56.2,158.7,54.7,152.3,54.7L152.3,54.7z"/>
			<path id="Path_438" class="st16" d="M137.9,56.8l0.5,19.5l10.3-3.2L137.9,56.8z"/>
			<path id="Path_439" class="st16" d="M128,95.9c-7.5-1-22.8-5.4-25.2-11.5c1,3.1,2.8,5.8,5.4,7.7c4.6,3.9,19.8,8.4,19.8,8.4
				L128,95.9z"/>
			<path id="Path_440" class="st7" d="M128.3,47.3l-6.8,4.2c-1.1-1.9-0.5-4.4,1.4-5.6c1.8-1.1,4.2-0.5,5.3,1.3
				C128.3,47.2,128.3,47.3,128.3,47.3L128.3,47.3z"/>
			<path id="Path_441" class="st7" d="M156,51.9l-7.6-2.7c0.6-2,2.7-3.2,4.8-2.6c0.1,0,0.1,0,0.2,0.1
				C155.5,47.5,156.7,49.8,156,51.9L156,51.9z"/>
			<path id="Path_442" class="st6" d="M135.4,61c-0.5,0-0.8-0.4-0.8-0.8c0,0,0,0,0,0c0-1.3,2.6-2.2,5-2.2s3.9,0.9,3.9,2.2
				c-0.1,0.4-0.6,0.7-1,0.6c-0.3-0.1-0.5-0.3-0.6-0.6c0-0.2-0.8-0.6-2.2-0.6c-1.2,0-2.3,0.2-3.4,0.6C136.3,60.6,135.9,61,135.4,61
				C135.5,61,135.4,61,135.4,61L135.4,61z"/>
			<path id="Path_443" class="st6" d="M116.2,60.3h-0.1l-18.4-1.6c-0.9-0.8-1.9-1.5-3-2l21.6,2c0.4,0.1,0.8,0.5,0.7,0.9
				C117,60,116.6,60.3,116.2,60.3z"/>
			<path id="Path_444" class="st12" d="M40.8,79.4c6-8,10.1-14.1,15.6-20.9c3.1-3.9,5.1-6.7,8-10.7c2.1-2.8,3.2-5.1,5.6-5.9
				c2.5-1,4.8-2.6,6.7-4.6c1.2-1.3,2.2-2.6,3.2-4c3.4-4.6,7.5-8.7,12.1-12.2c4.8-3.6,10.2-6.4,15.2-9.9c3-2.1,6.1-5.5,2.5-8.7
				c-1.1-0.9-2.4-1.6-3.8-1.8C97.1-1.3,89.5,1.7,81,3.9C77.3,4.8,73.6,6,70.1,7.6c-1.7,0.7-3.4,1.6-4.8,2.8c-2,2.1-3.7,4.5-5,7.1
				c-3.7,6.7-11.8,12.7-17.4,17.9C36.4,41.6,30.5,47.2,23,54C16.2,60.2,9.6,65.8,3.5,72.6c-5.1,5.5-3.2,9.9-2.5,11.4
				c4.2,8.6,8.8,11.7,14.5,17c9.6,9.2,43,35.7,54,44.4c2.4,1.9,4.2,4.3,5.4,7.1l2.1,4.9c12.6,2.3,21-16.6,10.6-39.3
				c-1.7-3.7-4.4-6.9-7.7-9.2C66.6,99.1,40.8,79.4,40.8,79.4z"/>
			<path id="Path_445" class="st16" d="M40.8,79.4c-4,4.9-9.3,8.6-15.4,10.6c0,0,8,2.1,19-7.8L40.8,79.4z"/>
			<path id="Path_446" class="st6" d="M204.1,196.4L204.1,196.4l-2.1-1.8l0,0c-0.6-0.4-1.4-0.5-2.1-0.2l-22.3,6.1
				c-2.3,0.8-4.1,2.5-5,4.7l-16.1,46.3c-0.4,0.8-0.3,1.7,0.3,2.4l0,0l2.1,1.8l0,0c0.6,0.4,1.4,0.5,2.1,0.3l22.3-6.1
				c2.3-0.8,4.1-2.5,5-4.7c3.2-9.1,12.8-37.2,16.1-46.3C204.9,197.7,204.7,196.9,204.1,196.4z"/>
			<path id="Path_447" class="st2" d="M158.7,253.3l16.1-46.3c0.9-2.2,2.7-3.9,5-4.7l22.3-6.1c2.1-0.6,3.2,0.6,2.5,2.6
				c-3.2,9.1-12.8,37.2-16.1,46.3c-0.9,2.2-2.7,3.9-5,4.7l-22.3,6.1C159.1,256.5,158,255.3,158.7,253.3z"/>
			<path id="Path_448" class="st8" d="M177.3,203.6c-1.2,0.9-2.1,2.1-2.6,3.4l-16.1,46.3c-0.4,0.8-0.3,1.6,0.2,2.3l-2-1.7l0,0
				c-0.6-0.6-0.7-1.6-0.3-2.4l16.1-46.3c0.5-1.3,1.3-2.4,2.4-3.2L177.3,203.6z"/>
			<path id="Path_449" class="st16" d="M198,217.5c-1.6,4.7-7.2,7.9-16.4,10s-14.3,12-12.8,14.9s16.4,5.8,22.3,4.9
				s11.9-9.5,13.7-12.1s3.9-21.3,2-23.8s-5.9-2.2-5.9-2.2L198,217.5z"/>
		</g>
	</g>
	
		<rect x="441.1" y="289.2" transform="matrix(0.8618 -0.5072 0.5072 0.8618 -85.0402 337.9816)" class="st17" width="273.3" height="71.8"/>
	<text transform="matrix(0.8618 -0.5072 0.5072 0.8618 532.619 327.2955)" class="st4 st18 st19">Forgot Id</text>
</g>
</svg>
